name Walk3.mot
datacolumns 19
datarows 15
range 1.67900000 1.69300000
endheader

                time	   L_ground_force_vx	   L_ground_force_vy	   L_ground_force_vz	   L_ground_force_px	   L_ground_force_py	   L_ground_force_pz	   R_ground_force_vx	   R_ground_force_vy	   R_ground_force_vz	   R_ground_force_px	   R_ground_force_py	   R_ground_force_pz	   L_ground_torque_x	   L_ground_torque_y	   L_ground_torque_z	   R_ground_torque_x	   R_ground_torque_y	   R_ground_torque_z	
          1.67900000	         16.52204625	        524.28154710	         33.89651106	         -0.33453998	          0.00000000	         -0.06023140	         -0.01126427	          0.15934809	          0.00946472	          0.00008057	          0.00000000	          0.00006681	          0.00000000	          0.53341639	          0.00000000	          0.00000000	          0.00010096	          0.00000000	
          1.68000000	         16.78685627	        525.63164942	         34.03467431	         -0.33425106	          0.00000000	         -0.06030949	         -0.01223924	          0.17010940	          0.00980686	          0.00008500	          0.00000000	          0.00007033	          0.00000000	          0.53025615	          0.00000000	          0.00000000	          0.00011754	          0.00000000	
          1.68100000	         17.05421172	        527.00392827	         34.17431658	         -0.33396406	          0.00000000	         -0.06038607	         -0.01325426	          0.18116818	          0.01014029	          0.00008949	          0.00000000	          0.00007387	          0.00000000	          0.52667658	          0.00000000	          0.00000000	          0.00013518	          0.00000000	
          1.68200000	         17.32416039	        528.39815968	         34.31540864	         -0.33367900	          0.00000000	         -0.06046117	         -0.01430886	          0.19250638	          0.01046283	          0.00009403	          0.00000000	          0.00007744	          0.00000000	          0.52268225	          0.00000000	          0.00000000	          0.00015389	          0.00000000	
          1.68300000	         17.59674951	        529.81411831	         34.45792272	         -0.33339589	          0.00000000	         -0.06053478	         -0.01540237	          0.20410314	          0.01077213	          0.00009860	          0.00000000	          0.00008103	          0.00000000	          0.51827864	          0.00000000	          0.00000000	          0.00017372	          0.00000000	
          1.68400000	         17.87202690	        531.25157816	         34.60183255	         -0.33311476	          0.00000000	         -0.06060694	         -0.01653388	          0.21593462	          0.01106568	          0.00010319	          0.00000000	          0.00008461	          0.00000000	          0.51347201	          0.00000000	          0.00000000	          0.00019466	          0.00000000	
          1.68500000	         18.15004197	        532.71031342	         34.74711329	         -0.33283562	          0.00000000	         -0.06067765	         -0.01770225	          0.22797374	          0.01134081	          0.00010778	          0.00000000	          0.00008818	          0.00000000	          0.50826919	          0.00000000	          0.00000000	          0.00021675	          0.00000000	
          1.68600000	         18.43084639	        534.19009896	         34.89374144	         -0.33255847	          0.00000000	         -0.06074694	         -0.01890609	          0.24019008	          0.01159467	          0.00011236	          0.00000000	          0.00009171	          0.00000000	          0.50267736	          0.00000000	          0.00000000	          0.00024000	          0.00000000	
          1.68700000	         18.71449439	        535.69070990	         35.04169446	         -0.33228332	          0.00000000	         -0.06081484	         -0.02014371	          0.25254967	          0.01182424	          0.00011689	          0.00000000	          0.00009519	          0.00000000	          0.49670363	          0.00000000	          0.00000000	          0.00026441	          0.00000000	
          1.68800000	         19.00104288	        537.21192075	         35.19095052	         -0.33201017	          0.00000000	         -0.06088135	         -0.02141314	          0.26501477	          0.01202630	          0.00012136	          0.00000000	          0.00009860	          0.00000000	          0.49035480	          0.00000000	          0.00000000	          0.00029001	          0.00000000	
          1.68900000	         19.29055164	        538.75350414	         35.34148817	         -0.33173902	          0.00000000	         -0.06094650	         -0.02271210	          0.27754369	          0.01219748	          0.00012575	          0.00000000	          0.00010193	          0.00000000	          0.48363739	          0.00000000	          0.00000000	          0.00031678	          0.00000000	
          1.69000000	         19.58308366	        540.31522978	         35.49328621	         -0.33146987	          0.00000000	         -0.06101030	         -0.02403797	          0.29009064	          0.01233418	          0.00013002	          0.00000000	          0.00010514	          0.00000000	          0.47655783	          0.00000000	          0.00000000	          0.00034473	          0.00000000	
          1.69100000	         19.87870564	        541.89686355	         35.64632365	         -0.33120272	          0.00000000	         -0.06107278	         -0.02538778	          0.30260547	          0.01243265	          0.00013416	          0.00000000	          0.00010821	          0.00000000	          0.46912297	          0.00000000	          0.00000000	          0.00037386	          0.00000000	
          1.69200000	         20.17748860	        543.49816689	         35.80057959	         -0.33093756	          0.00000000	         -0.06113396	         -0.02675816	          0.31503350	          0.01248893	          0.00013812	          0.00000000	          0.00011113	          0.00000000	          0.46134052	          0.00000000	          0.00000000	          0.00040415	          0.00000000	
          1.69300000	         20.47950836	        545.11889620	         35.95603316	         -0.33067440	          0.00000000	         -0.06119387	         -0.02814538	          0.32731535	          0.01249886	          0.00014189	          0.00000000	          0.00011385	          0.00000000	          0.45321934	          0.00000000	          0.00000000	          0.00043558	          0.00000000	
